<svg width="602" height="625" viewBox="0 0 602 625" fill="none" xmlns="http://www.w3.org/2000/svg">
<path fill-rule="evenodd" clip-rule="evenodd" d="M181.365 33.363C190.721 13.639 210.817 0 234.098 0H367.432C390.712 0 410.808 13.639 420.165 33.363C442.948 33.5287 460.708 34.5747 476.558 40.7697C495.498 48.172 511.972 60.7553 524.095 77.0807C536.325 93.55 542.068 114.66 549.972 143.715L574.702 234.424L584.048 262.467C584.315 262.797 584.578 263.127 584.838 263.463C614.868 301.92 600.568 359.117 571.972 473.51C553.782 546.267 544.685 582.643 517.562 603.823C490.435 625.003 452.938 625.003 377.942 625.003H223.586C148.59 625.003 111.093 625.003 83.9666 603.823C56.8406 582.643 47.746 546.267 29.557 473.51C0.958647 359.117 -13.3404 301.92 16.6873 263.463C16.95 263.127 17.215 262.793 17.4823 262.463L26.8283 234.424L51.5596 143.715C59.4623 114.66 65.2036 93.55 77.4346 77.0807C89.5586 60.7553 106.032 48.172 124.972 40.77C140.823 34.5747 158.581 33.5287 181.365 33.363ZM181.415 83.4103C159.353 83.6333 150.5 84.4757 143.173 87.3393C132.975 91.3253 124.104 98.101 117.576 106.891C111.706 114.796 108.261 125.84 98.5643 161.402L79.579 231.03C113.582 225.004 160.016 225.004 223.586 225.004H377.942C441.512 225.004 487.948 225.004 521.952 231.031L502.965 161.402C493.268 125.84 489.825 114.796 483.955 106.891C477.425 98.101 468.555 91.3253 458.358 87.3393C451.032 84.4757 442.178 83.6333 420.115 83.4103C410.738 103.077 390.672 116.667 367.432 116.667H234.098C210.859 116.667 190.793 103.077 181.415 83.4103Z" fill="#00C8C8"/>
</svg>
