<svg width="326" height="759" viewBox="0 0 326 759" fill="none" xmlns="http://www.w3.org/2000/svg">
<path d="M325.2 0.750732C325.333 1.0174 324.667 3.68407 323.6 6.75073C322.4 9.68407 320.667 20.484 319.467 30.6174C318.267 40.6174 317.067 49.8174 316.8 50.884C316.533 51.9507 315.6 58.6174 314.8 65.5507C314 72.4841 312.8 81.2841 312 85.0174C311.333 88.6174 309.867 98.884 308.8 107.684C306.4 128.217 302.933 153.417 302.133 157.151L301.467 160.217H239.6H177.733L176.933 184.484C176.533 197.951 175.867 226.751 175.467 248.484L174.667 288.217H231.2C262.267 288.217 288 288.484 288.267 288.751C288.533 289.017 288.4 302.751 288 319.151C287.467 335.417 286.667 371.417 286.133 399.017L285.2 449.284L224.533 450.217L164 451.151L164.667 562.751C165.2 624.084 165.867 686.617 166.267 701.817L166.933 729.417L163.867 730.084C162.133 730.484 150.267 732.617 137.467 734.884C124.667 737.017 109.333 739.817 103.467 740.884C93.8666 742.751 82 744.884 43.4667 751.684C36.9333 752.751 25.8667 754.884 19.0667 756.351C12.2667 757.684 5.20001 758.884 3.33334 758.884H0L0.533325 691.951C0.933325 655.017 1.73333 579.017 2.53333 522.884C3.33333 466.751 4.26665 366.217 4.79999 299.551C5.19999 232.751 6.13332 152.751 6.79999 121.551C7.59999 90.3507 8.13333 50.884 8.13333 33.8174C8.13333 8.35072 8.53333 2.61738 10 2.08405C14.5333 0.350712 323.467 -0.849267 325.2 0.750732Z" fill="black"/>
</svg>
